<?xml version="1.0" standalone="no"?>
<!DOCTYPE svg PUBLIC "-//W3C//DTD SVG 20010904//EN"
 "http://www.w3.org/TR/2001/REC-SVG-20010904/DTD/svg10.dtd">
<svg version="1.0" xmlns="http://www.w3.org/2000/svg"
 width="1024.000000pt" height="1024.000000pt" viewBox="0 0 1024.000000 1024.000000"
 preserveAspectRatio="xMidYMid meet">
<metadata>
Created by potrace 1.11, written by Peter Selinger 2001-2013
</metadata>
<g transform="translate(0.000000,1024.000000) scale(0.100000,-0.100000)"
fill="#000000" stroke="none">
<path d="M5036 10083 c-3 -4 -50 -7 -104 -9 -135 -3 -358 -20 -407 -31 -11 -2
-40 -6 -65 -8 -42 -4 -69 -8 -130 -19 -14 -3 -41 -7 -60 -10 -44 -7 -88 -15
-122 -22 -15 -3 -30 -5 -33 -5 -2 0 -19 -5 -37 -10 -18 -6 -46 -12 -62 -14
-15 -2 -36 -7 -46 -10 -10 -3 -28 -8 -39 -10 -68 -15 -245 -65 -305 -86 -32
-12 -63 -22 -70 -24 -6 -1 -19 -5 -28 -8 -20 -8 -50 -19 -58 -22 -3 -1 -20 -6
-37 -10 -18 -4 -33 -12 -33 -18 0 -6 -3 -8 -6 -5 -3 4 -37 -7 -75 -22 -38 -16
-69 -27 -69 -25 0 2 -32 -12 -70 -31 -39 -19 -73 -34 -76 -34 -11 0 -281 -134
-298 -149 -16 -13 -18 -13 -12 -1 7 13 6 13 -6 0 -7 -8 -35 -26 -63 -40 -27
-14 -56 -31 -63 -37 -7 -7 -17 -13 -22 -13 -12 0 -332 -202 -350 -220 -3 -3
-36 -28 -75 -55 -38 -27 -72 -51 -75 -54 -3 -3 -34 -28 -70 -56 -36 -27 -70
-54 -76 -60 -6 -5 -33 -28 -60 -50 -66 -55 -150 -130 -206 -184 l-48 -46 113
-115 c118 -122 172 -181 247 -270 25 -29 51 -59 57 -66 7 -7 13 -17 13 -23 0
-6 4 -11 8 -11 5 0 24 -21 42 -47 18 -27 38 -52 44 -58 6 -5 19 -21 28 -35 10
-14 30 -43 46 -65 84 -118 142 -206 142 -215 0 -5 4 -10 10 -10 5 0 17 -15 25
-32 30 -62 40 -78 47 -78 5 0 8 -4 8 -10 0 -5 19 -42 43 -82 23 -40 60 -107
81 -148 21 -41 43 -79 47 -84 5 -6 9 -14 9 -18 0 -6 -93 -60 -110 -63 -3 0
-106 -51 -229 -112 -124 -62 -228 -110 -232 -108 -4 3 -21 32 -39 66 -17 34
-41 77 -52 98 -12 20 -32 56 -46 81 -14 25 -41 70 -61 100 -19 30 -42 67 -49
83 -8 15 -19 27 -24 27 -5 0 -7 4 -4 8 3 5 -7 22 -22 38 -15 17 -33 42 -41 57
-8 15 -21 35 -30 44 -9 10 -48 61 -88 113 -40 52 -84 109 -98 125 -103 118
-136 155 -211 232 -47 49 -89 94 -93 102 -6 9 -35 -23 -100 -110 -51 -68 -103
-137 -117 -154 -13 -16 -24 -35 -24 -42 0 -6 -3 -13 -8 -15 -7 -3 -122 -174
-122 -181 0 -2 -29 -51 -63 -109 -73 -121 -262 -499 -272 -543 -1 -5 -12 -30
-23 -55 -23 -49 -29 -64 -108 -290 -30 -85 -57 -166 -60 -180 -8 -38 -12 -55
-14 -57 -2 -2 -4 -7 -5 -13 -1 -5 -3 -11 -5 -12 -3 -4 -12 -41 -15 -63 -1 -11
-5 -27 -9 -35 -3 -8 -8 -26 -10 -40 -3 -14 -5 -25 -6 -25 -1 0 -3 -7 -5 -15
-2 -8 -6 -27 -9 -42 -3 -16 -9 -40 -12 -55 -3 -16 -7 -35 -9 -43 -2 -8 -4 -15
-5 -15 -1 0 -3 -13 -5 -30 -2 -16 -6 -41 -10 -55 -3 -14 -8 -41 -11 -60 -2
-19 -7 -46 -9 -60 -10 -51 -22 -137 -30 -215 -4 -27 -8 -66 -11 -85 -24 -177
-24 -765 0 -975 2 -16 6 -57 10 -90 6 -52 19 -139 40 -275 3 -19 8 -46 11 -60
2 -14 7 -36 10 -50 2 -14 7 -38 10 -55 3 -16 7 -39 10 -50 34 -139 42 -175 37
-175 -2 0 0 -6 6 -12 5 -7 13 -29 17 -48 4 -19 12 -41 19 -49 8 -12 8 -13 -2
-7 -9 6 -9 0 1 -26 8 -18 34 -94 58 -168 24 -74 46 -142 51 -150 4 -8 25 -62
47 -120 22 -58 47 -119 55 -135 9 -17 16 -33 16 -37 0 -22 178 -372 248 -488
12 -19 29 -48 38 -64 9 -16 37 -61 62 -100 25 -39 44 -73 43 -75 -2 -2 1 -7 6
-10 5 -3 29 -35 54 -71 24 -36 47 -69 52 -75 17 -23 94 -124 114 -151 12 -16
29 -38 37 -49 14 -19 17 -17 88 56 100 104 198 211 228 249 14 18 35 42 46 55
23 25 156 203 217 290 38 54 187 293 187 300 0 2 11 21 25 41 14 20 23 40 20
44 -3 5 -1 10 4 12 5 1 25 36 45 75 29 58 40 72 56 70 11 -2 26 -9 32 -15 7
-7 15 -12 19 -12 7 0 231 -106 406 -193 50 -25 94 -43 97 -39 3 3 6 1 6 -5 0
-5 -3 -13 -7 -17 -5 -4 -8 -11 -9 -14 0 -10 -87 -175 -129 -247 -19 -33 -39
-70 -44 -82 -6 -11 -15 -24 -21 -28 -5 -3 -8 -11 -5 -16 4 -5 -1 -12 -9 -15
-9 -3 -14 -10 -11 -14 2 -4 -4 -15 -15 -25 -11 -10 -20 -22 -20 -27 0 -4 -35
-59 -77 -121 -103 -152 -117 -171 -124 -177 -3 -3 -25 -32 -50 -65 -24 -33
-48 -65 -54 -71 -5 -6 -22 -26 -37 -45 -14 -19 -35 -43 -45 -55 -85 -98 -128
-146 -159 -180 -20 -21 -49 -54 -66 -71 -16 -18 -34 -33 -39 -33 -5 0 -9 -4
-9 -10 0 -5 -23 -30 -51 -56 l-50 -48 68 -64 c37 -35 90 -82 117 -105 27 -23
57 -49 65 -57 23 -21 122 -101 155 -125 16 -11 38 -29 50 -40 12 -11 29 -24
38 -30 9 -5 65 -44 124 -86 119 -84 321 -212 369 -235 36 -17 88 -47 95 -54 6
-7 337 -170 344 -170 3 0 34 -14 68 -30 35 -17 70 -32 78 -34 17 -3 33 -10
108 -42 28 -13 52 -20 52 -17 0 3 6 0 13 -6 8 -6 22 -12 33 -14 10 -2 26 -7
34 -10 40 -16 202 -68 255 -82 131 -36 290 -76 319 -81 17 -2 47 -9 66 -14 19
-5 51 -11 70 -14 40 -7 80 -13 130 -22 34 -6 49 -8 135 -19 22 -3 54 -7 70
-10 52 -7 168 -17 225 -20 30 -2 55 -4 55 -5 0 -2 234 -10 284 -10 19 1 38 3
43 6 4 3 8 0 8 -6 0 -6 5 -8 12 -4 7 4 66 9 132 10 141 3 332 16 404 28 15 3
54 8 87 12 33 3 69 8 80 10 11 3 36 7 55 10 78 12 98 16 170 30 207 42 395 92
585 156 50 17 96 31 103 31 6 0 12 4 12 9 0 4 3 7 8 7 4 -1 10 0 15 1 4 1 10
3 15 5 12 3 44 16 104 40 31 13 59 21 62 18 3 -4 6 -1 6 5 0 7 8 12 18 12 10
0 23 5 29 11 6 6 17 12 24 13 18 4 91 36 194 87 44 21 86 39 93 39 7 0 12 4
12 8 0 5 19 16 43 27 23 10 44 21 47 24 3 3 23 15 45 26 22 11 48 26 58 34 9
8 17 10 17 6 0 -4 8 -1 18 7 9 8 71 48 137 88 66 41 122 76 125 79 3 3 39 29
80 56 41 28 80 55 86 60 6 6 22 17 34 25 12 8 28 20 34 25 6 6 45 36 86 67 41
32 89 70 106 85 18 15 56 48 84 73 29 25 83 73 120 108 l67 62 -106 109 c-137
140 -201 212 -321 360 -19 24 -41 49 -47 56 -7 8 -13 18 -13 24 0 6 -3 11 -7
11 -5 0 -24 23 -43 50 -19 27 -38 50 -42 50 -5 0 -8 7 -8 15 0 8 -4 15 -10 15
-5 0 -10 6 -10 13 0 7 -11 24 -25 39 -14 15 -25 29 -25 32 0 8 -64 101 -72
104 -5 2 -8 8 -8 13 0 12 -52 93 -62 97 -5 2 -8 8 -8 12 0 5 -14 33 -31 62
-117 197 -189 344 -176 357 6 6 14 11 18 11 4 0 97 43 206 97 109 53 204 96
211 96 6 0 12 3 12 7 0 4 19 15 43 26 23 10 44 21 47 24 15 16 30 2 63 -63 32
-61 71 -134 121 -222 6 -11 24 -39 39 -62 15 -24 27 -47 27 -52 0 -5 3 -11 8
-13 4 -1 23 -28 42 -58 19 -30 37 -57 40 -60 3 -3 23 -32 45 -65 22 -33 42
-62 45 -65 3 -3 28 -34 55 -70 51 -68 184 -227 245 -293 67 -73 170 -177 176
-177 8 0 27 21 54 60 13 19 27 37 30 40 24 18 270 383 270 399 0 5 4 11 8 13
8 3 29 38 95 158 16 30 33 60 38 65 6 8 119 230 125 245 1 3 5 15 9 28 4 12
11 22 14 22 4 0 8 6 8 13 0 6 12 39 27 72 42 91 106 254 106 269 0 8 3 16 8
18 5 2 68 179 77 218 1 3 7 25 14 50 7 25 15 52 16 60 2 8 4 16 5 18 2 1 4 7
5 12 1 6 3 11 5 13 1 1 4 11 6 22 8 33 12 50 14 53 2 1 4 11 5 22 1 11 3 21 5
23 2 3 17 64 24 102 1 6 5 16 9 23 5 6 6 12 4 12 -3 0 -1 17 4 38 5 20 11 57
15 82 3 25 9 49 12 54 3 5 7 25 9 45 3 34 9 70 13 81 1 3 2 9 1 13 -1 5 3 35
9 66 6 32 13 84 15 117 3 32 7 73 9 89 26 187 26 764 1 950 -3 22 -7 58 -10
80 -5 58 -15 136 -21 165 -2 14 -6 43 -9 65 -3 22 -13 76 -22 120 -9 44 -17
89 -18 100 -2 11 -12 58 -24 105 -11 47 -22 95 -24 107 -2 13 -6 26 -10 29 -4
4 -7 20 -7 36 0 15 -4 28 -8 28 -4 0 -9 12 -10 28 -1 15 -6 36 -10 47 -5 11
-33 94 -62 185 -29 91 -56 170 -60 175 -3 6 -22 51 -40 100 -19 50 -40 99 -47
111 -7 11 -10 24 -6 27 3 4 2 7 -4 7 -6 0 -14 12 -17 26 -11 42 -157 330 -230
453 -36 61 -66 116 -66 121 0 6 -4 10 -10 10 -5 0 -10 7 -10 15 0 8 -5 15 -11
15 -5 0 -8 4 -5 9 4 5 3 11 -1 13 -5 1 -30 37 -57 78 -27 41 -53 77 -58 78 -4
2 -8 8 -8 13 0 10 -93 141 -127 179 -13 14 -23 28 -23 31 0 3 -10 18 -23 33
l-23 27 -77 -78 c-98 -101 -153 -160 -199 -214 -20 -24 -44 -54 -55 -66 -34
-40 -48 -58 -98 -123 -27 -36 -53 -69 -57 -75 -39 -49 -163 -234 -203 -303 -6
-9 -33 -55 -60 -102 -28 -47 -66 -115 -85 -152 -19 -38 -40 -68 -46 -68 -6 0
-105 47 -220 103 -115 57 -239 118 -276 136 -66 31 -79 43 -58 56 6 3 10 15
10 25 0 10 4 20 8 22 5 2 28 41 52 88 24 47 51 96 61 110 9 14 25 41 35 60 22
41 156 253 164 260 4 3 31 41 61 85 30 44 60 84 67 88 6 4 12 12 12 17 0 5 11
22 25 37 13 16 46 55 72 89 48 60 110 133 171 202 17 20 32 40 32 44 0 4 7 8
15 8 8 0 15 4 15 9 0 5 46 55 101 112 l102 102 -73 69 c-40 38 -98 90 -128
116 -83 69 -113 95 -128 110 -7 6 -17 12 -23 12 -6 0 -11 4 -11 9 0 5 -16 19
-36 32 -20 12 -43 29 -52 39 -10 9 -48 39 -87 66 -38 27 -76 54 -83 61 -7 7
-19 13 -27 13 -7 0 -15 4 -17 9 -1 5 -59 45 -128 89 -118 75 -152 95 -275 164
-59 32 -288 146 -360 178 -27 12 -68 30 -90 40 -22 10 -67 28 -100 40 -33 12
-69 26 -80 31 -30 13 -79 32 -90 35 -5 1 -57 18 -115 37 -111 36 -240 74 -310
92 -18 4 -204 47 -213 49 -7 2 -28 6 -47 10 -19 4 -48 9 -65 11 -16 2 -30 4
-30 5 0 2 -33 9 -70 14 -16 3 -46 7 -65 10 -19 3 -55 8 -80 11 -25 3 -63 8
-85 11 -22 3 -60 6 -85 8 -25 2 -45 5 -45 5 0 5 -164 13 -277 14 -71 1 -128 6
-128 10 0 4 -8 4 -17 0 -21 -10 -73 -10 -89 0 -6 3 -14 4 -18 0z m-2054 -3508
c16 -49 30 -99 33 -110 2 -11 9 -38 15 -60 16 -58 28 -106 34 -135 5 -26 12
-53 22 -92 3 -13 7 -34 9 -48 2 -14 6 -36 10 -50 3 -14 8 -34 10 -45 1 -11 6
-38 10 -60 4 -22 9 -49 10 -60 1 -11 5 -36 9 -55 3 -19 9 -55 11 -80 3 -25 8
-61 10 -80 12 -96 26 -279 29 -380 1 -47 5 -91 9 -98 5 -6 5 -12 0 -12 -4 0
-8 -13 -8 -30 0 -16 3 -30 6 -30 4 0 3 -18 -1 -40 -4 -22 -3 -43 1 -46 5 -3 6
-10 2 -17 -10 -17 -9 -87 2 -87 7 0 7 -3 0 -8 -5 -4 -11 -25 -11 -47 -3 -74
-14 -240 -19 -275 -2 -19 -7 -60 -9 -90 -3 -30 -6 -55 -6 -55 -2 0 -11 -79
-13 -112 -1 -18 -4 -33 -7 -33 -3 0 -7 -10 -7 -22 -3 -41 -12 -102 -23 -146
-5 -23 -13 -59 -16 -79 -3 -20 -10 -48 -16 -62 -5 -14 -9 -27 -8 -29 0 -1 -2
-19 -7 -40 -9 -48 -10 -52 -13 -54 -2 -3 -6 -19 -14 -58 -8 -35 -67 -233 -73
-243 -2 -4 -14 -2 -26 5 -12 6 -31 12 -42 13 -11 1 -40 9 -65 18 -37 14 -192
64 -370 120 -19 6 -41 15 -48 21 -7 5 -15 6 -19 3 -9 -10 -44 13 -37 24 9 15
47 146 70 242 2 9 7 27 10 40 3 12 7 29 9 37 2 8 4 15 5 15 1 0 3 9 5 20 3 21
11 65 20 103 12 53 15 68 20 107 3 22 8 47 10 55 2 8 7 38 10 65 3 28 7 61 9
75 11 64 27 250 30 351 1 36 6 71 10 77 4 7 4 12 -1 12 -4 0 -8 11 -8 25 0 14
4 25 8 25 4 0 4 8 -2 17 -5 10 -5 26 -1 39 5 12 6 25 3 28 -10 9 -10 56 0 56
4 0 5 6 0 12 -4 7 -8 51 -9 98 -3 88 -9 178 -19 265 -3 28 -8 68 -10 90 -2 22
-6 51 -9 65 -2 14 -8 48 -12 75 -4 28 -9 57 -11 65 -1 8 -5 31 -8 50 -3 19
-14 73 -25 120 -11 47 -23 99 -26 115 -7 41 -74 276 -84 295 -10 20 -2 40 16
40 7 0 102 30 211 66 109 36 204 66 211 67 6 0 12 3 12 6 0 4 12 8 26 9 15 1
32 6 38 11 14 12 46 19 71 18 15 -2 25 -20 47 -92z m4403 63 c33 -11 66 -20
73 -21 6 0 12 -3 12 -7 0 -4 6 -7 13 -7 10 0 351 -110 402 -129 12 -5 12 -11
1 -42 -17 -47 -44 -140 -50 -172 -2 -14 -9 -37 -15 -52 -6 -16 -8 -28 -5 -28
3 0 2 -6 -3 -12 -4 -7 -9 -20 -10 -28 -5 -33 -12 -65 -13 -65 -1 0 -3 -7 -5
-15 -2 -8 -7 -26 -10 -40 -3 -14 -8 -44 -10 -68 -3 -24 -7 -47 -10 -51 -2 -5
-7 -26 -10 -47 -3 -22 -8 -55 -12 -74 -3 -19 -6 -47 -7 -62 0 -16 -3 -28 -6
-28 -3 0 -5 -12 -6 -27 0 -16 -4 -55 -7 -89 -9 -80 -19 -202 -22 -289 -2 -38
-4 -72 -5 -75 -1 -3 -1 -9 0 -15 2 -5 2 -39 1 -75 -2 -79 -2 -65 4 -180 8
-178 17 -281 31 -380 4 -25 8 -58 9 -75 2 -16 4 -32 6 -35 2 -6 2 -5 14 -80 5
-30 9 -62 10 -70 0 -8 4 -20 8 -26 4 -7 9 -29 12 -50 2 -22 9 -59 15 -84 6
-25 13 -54 15 -65 2 -11 4 -21 5 -22 3 -3 4 -9 14 -48 16 -66 47 -171 56 -187
6 -11 5 -20 -3 -26 -13 -10 -423 -144 -447 -146 -8 0 -18 -5 -21 -9 -3 -4 -16
-9 -27 -10 -12 -1 -22 -4 -22 -7 0 -4 -6 -7 -12 -7 -7 -1 -27 -4 -43 -8 l-31
-7 -24 79 c-13 43 -25 85 -26 93 -2 8 -7 31 -13 50 -33 123 -40 150 -45 176
-2 16 -5 29 -6 29 -2 0 -5 16 -14 60 -3 17 -8 41 -11 55 -13 66 -17 87 -21
115 -8 60 -14 98 -19 119 -3 12 -7 39 -9 61 -3 22 -7 61 -11 87 -11 83 -25
256 -31 388 -2 47 -4 90 -5 95 0 6 1 27 3 48 3 21 1 40 -4 43 -5 3 -5 10 -2
16 4 6 6 32 5 59 -2 71 -2 67 3 149 3 41 8 109 10 150 3 41 8 100 11 130 4 30
8 71 10 90 2 19 4 35 5 35 0 0 3 18 6 40 6 58 11 96 17 130 3 17 8 46 11 65 3
19 8 46 11 60 6 27 9 42 21 110 9 51 11 59 14 63 2 2 6 19 13 57 3 14 6 25 7
25 1 0 3 11 5 25 2 14 10 50 19 80 9 30 19 66 22 80 3 14 19 67 36 118 25 76
33 92 47 87 9 -4 43 -16 76 -27z"/>
</g>
</svg>
